<svg width="295" height="257" viewBox="0 0 295 257" fill="none" xmlns="http://www.w3.org/2000/svg">
<path d="M256.295 112.066L253.285 113.737C252.012 114.445 251.222 115.787 251.222 117.244C251.222 119.845 253.659 121.758 256.185 121.14L257.046 120.93C257.641 120.784 258.258 120.757 258.864 120.848L265.499 121.847C267.677 122.175 269.685 123.212 271.212 124.798L274.831 128.554C276.009 129.778 276.857 131.282 277.293 132.924L278.833 138.719C279.056 139.557 279.168 140.42 279.168 141.287V146.96C279.168 148.076 278.982 149.185 278.616 150.239L277.656 153.005C276.986 154.933 275.744 156.61 274.094 157.811L264.685 164.661C263.652 165.413 263.337 166.815 263.949 167.937C264.395 168.754 265.251 169.262 266.182 169.262H267.36C268.332 169.262 269.278 168.95 270.058 168.371L280.158 160.881C281.846 159.628 283.097 157.876 283.733 155.872L285.879 149.105C286.379 147.529 286.481 145.854 286.174 144.229L284.953 137.748C284.784 136.851 284.493 135.981 284.087 135.163L277.467 121.794C277.307 121.471 277.099 121.175 276.851 120.914L273.78 117.695C272.77 116.636 273.521 114.883 274.984 114.883C276.489 114.883 277.22 113.044 276.125 112.01L271.937 108.056C271.389 107.539 270.705 107.189 269.965 107.048L265.512 106.197C262.799 105.678 260.07 107.01 258.809 109.467C258.247 110.563 257.372 111.468 256.295 112.066Z" fill="#F29F05"/>
<path d="M30.7862 92.325L14.4964 108.609L18.9799 96.6574L24.5878 91.539C25.4261 90.7738 26.3886 90.157 27.4339 89.7149L31.7582 87.886C32.9907 87.3648 34.3153 87.0962 35.6534 87.0962H38.1639C39.3128 87.0962 40.4515 87.3118 41.5209 87.7318L42.5874 88.1506C45.9199 89.4593 47.9183 92.8846 47.4176 96.4297L46.9589 99.6778C46.6832 101.63 45.0125 103.081 43.041 103.081H37.063H36.8915C33.143 103.081 29.7093 105.178 27.9965 108.512L27.9467 108.609L21.6699 122.353L14.3169 143.869C13.7495 145.53 13.637 147.312 13.9909 149.03C14.3226 150.641 15.0531 152.142 16.1155 153.397L16.8943 154.318C17.4848 155.015 18.1682 155.629 18.9253 156.141L22.5864 158.616C25.8369 160.814 27.4604 164.741 26.7112 168.593L26.2598 170.913C26.0025 172.236 25.1814 173.382 24.0109 174.05C22.5639 174.877 20.7844 174.862 19.3511 174.012L10.043 168.491C8.74464 167.72 7.6375 166.666 6.8046 165.407L1.94281 158.058L3.13839 147.451L5.82845 153.277L7.30334 159.175C7.80054 161.163 8.94183 162.93 10.5492 164.202L18.5934 170.564C20.0449 171.712 22.1974 170.994 22.6685 169.204C22.9617 168.09 22.4774 166.918 21.4838 166.336L16.5287 163.432C15.1921 162.649 14.0558 161.566 13.2093 160.268L11.6378 157.859C10.5775 156.234 10.013 154.336 10.013 152.395V145.658L11.204 133.488C11.3061 132.445 11.5713 131.425 11.99 130.465L16.4392 120.262L30.7862 92.325Z" fill="#F29F05"/>
<path d="M44.3006 109.42L92.1464 124.049L121.007 135.959L145.263 142.82L134.055 187.488L120.381 225.908C119.633 228.01 118.204 229.802 116.32 230.998L107.218 236.778C105.614 237.797 103.754 238.338 101.855 238.338L82.9755 238.338C82.3834 238.338 81.7924 238.285 81.2095 238.18L52.5475 233.039C51.4971 232.851 50.4836 232.495 49.5456 231.987L31.2689 222.074C29.529 221.131 28.1085 219.692 27.1871 217.941L19.9533 204.19C18.7532 201.909 18.4807 199.252 19.1929 196.774L44.3006 109.42Z" fill="#F29F05"/>
<path d="M153.035 125.191L175.751 119.515L213.113 117.439C213.113 117.439 226.563 122.832 238.07 117.439C249.578 112.045 250.923 114.235 250.923 114.235L262.729 153.407L273.505 211.392C273.884 213.433 273.619 215.54 272.747 217.423L267.338 229.098C266.296 231.347 264.455 233.13 262.173 234.098L247.893 240.16C247.324 240.402 246.734 240.59 246.13 240.722L209.605 248.744C208.272 249.037 206.892 249.053 205.552 248.793L184.539 244.709C182.06 244.227 179.856 242.825 178.368 240.786L167.686 226.145C166.702 224.796 166.071 223.223 165.851 221.569L153.035 125.191Z" fill="#F29F05"/>
<path d="M124.639 187.339L128.376 174.491L128.494 174.089C128.939 172.577 131.049 172.493 131.612 173.965C131.742 174.306 131.756 174.681 131.65 175.03L128.376 185.845L122.697 201.531L117.896 214.939C117.717 215.439 117.337 215.842 116.848 216.049C115.298 216.707 113.721 215.172 114.336 213.604L124.639 187.339Z" fill="white"/>
<path d="M87.822 227.376L82.4772 225.662C81.7755 225.437 81.2996 224.785 81.2996 224.048C81.2996 222.984 82.2682 222.183 83.3131 222.383L97.5554 225.107C98.1745 225.225 98.8034 225.285 99.4337 225.285H109.496C109.628 225.285 109.758 225.305 109.884 225.346C111.264 225.788 110.945 227.825 109.496 227.825H101.475H90.6888C89.7157 227.825 88.7486 227.673 87.822 227.376Z" fill="white"/>
<path d="M124.639 187.339L128.376 174.491L128.494 174.089C128.939 172.577 131.049 172.493 131.612 173.965C131.742 174.306 131.756 174.681 131.65 175.03L128.376 185.845L122.697 201.531L117.896 214.939C117.717 215.439 117.337 215.842 116.848 216.049C115.298 216.707 113.721 215.172 114.336 213.604L124.639 187.339Z" stroke="white"/>
<path d="M87.822 227.376L82.4772 225.662C81.7755 225.437 81.2996 224.785 81.2996 224.048C81.2996 222.984 82.2682 222.183 83.3131 222.383L97.5554 225.107C98.1745 225.225 98.8034 225.285 99.4337 225.285H109.496C109.628 225.285 109.758 225.305 109.884 225.346C111.264 225.788 110.945 227.825 109.496 227.825H101.475H90.6888C89.7157 227.825 88.7486 227.673 87.822 227.376Z" stroke="white"/>
<path d="M251.098 124.394L250.609 124.061C249.657 123.412 248.382 123.511 247.542 124.298C246.946 124.857 246.666 125.675 246.795 126.481L248.98 140.131L254.921 162.472C255.144 163.31 255.257 164.174 255.257 165.042V176.735C255.257 177.326 255.361 177.912 255.564 178.467L256.792 181.827C257.419 183.545 259.577 184.094 260.95 182.887C261.511 182.393 261.833 181.682 261.833 180.935V177.073C261.833 176.548 261.791 176.023 261.709 175.505L260.643 168.79C260.442 167.529 259.952 166.331 259.209 165.292C258.477 164.268 257.99 163.089 257.784 161.846L255.257 146.555L252.464 126.594C252.339 125.701 251.843 124.902 251.098 124.394Z" fill="white"/>
<path d="M251.496 215.908L243.398 213.141C241.903 212.631 241.283 210.855 242.134 209.525C242.582 208.826 243.355 208.403 244.185 208.403H245.751C246.306 208.403 246.858 208.491 247.386 208.662L256.168 211.512C257.441 211.925 258.617 212.59 259.629 213.466L264.048 217.295C264.539 217.72 264.822 218.338 264.822 218.988C264.822 220.488 263.375 221.564 261.938 221.133L260.672 220.754C260.45 220.687 260.236 220.597 260.033 220.484L252.981 216.568C252.506 216.304 252.01 216.084 251.496 215.908Z" fill="white"/>
<path d="M184.563 223.241L180.554 226.565C180.145 226.904 179.804 227.316 179.548 227.781L179.046 228.693C178.583 229.535 178.635 230.565 179.179 231.356C179.652 232.044 180.434 232.456 181.27 232.456H181.756C182.514 232.456 183.251 232.207 183.853 231.748L185.147 230.763C185.754 230.3 186.295 229.756 186.753 229.145L186.859 229.004C187.805 227.742 189.07 226.754 190.523 226.139L191.047 225.918C191.801 225.599 192.612 225.434 193.431 225.434C194.479 225.434 195.51 225.165 196.424 224.652L201.157 221.998L209.774 218.474C210.601 218.136 211.47 217.91 212.357 217.803L224.897 216.283C225.482 216.212 226.009 215.897 226.348 215.416C227.318 214.038 226.333 212.138 224.647 212.138H224.471H221.644C220.94 212.138 220.238 212.213 219.549 212.36L208.031 214.827L198.766 217.965L187.919 221.409C186.693 221.798 185.553 222.42 184.563 223.241Z" fill="white"/>
<path d="M93.0342 46.1321C95.6346 44.9071 98.2051 43.8614 100.686 42.6363C104.811 40.6644 108.935 38.5728 113.538 38.035C117.783 37.5271 122.087 37.7064 125.315 40.9631C127.048 42.726 128.304 44.9669 129.739 47.0285C130.934 48.7615 131.861 50.7335 133.236 52.2871C135.836 55.3049 139.841 57.1275 144.086 55.1256C145.909 54.2293 147.642 53.0939 149.346 51.9585C150.183 51.3609 150.004 50.4347 149.197 49.8371C145.819 47.387 143.308 44.0705 140.588 40.9631C137.928 37.9454 134.85 35.4057 131.323 33.4038C127.945 31.4319 124.508 29.43 121.429 27.0098C118.291 24.5299 116.647 20.9743 115.93 16.9407C115.481 14.1919 115.78 11.6223 116.677 9.08264C118.231 4.54109 121.728 1.97152 126.152 0.656864C129.709 -0.418767 133.266 -0.209616 136.613 1.55322C139.273 2.92764 141.067 5.19842 142.681 7.70822C145.61 12.19 146.985 17.2993 148.509 22.3189C150.093 27.5476 152.365 32.3581 155.772 36.6307C156.131 37.1088 156.549 37.5271 156.938 37.9753C157.058 37.4375 157.087 36.8996 157.237 36.3917C157.954 33.8819 158.522 31.2825 160.375 29.3404C163.723 25.8446 167.818 25.5756 172.122 27.0397C176.725 28.5934 180.431 33.4038 180.312 38.4533C180.252 41.3814 179.654 44.0705 178.459 46.67C177.95 47.7755 178.399 48.7615 179.923 49.6279C183.002 51.331 186.29 51.5701 189.637 50.8231C193.224 49.9865 196.691 48.7913 200.278 48.0145C204.582 47.0883 208.976 46.3712 213.22 48.4328C216.06 49.8371 218.092 52.1676 219.975 54.6177C221.29 56.3208 221.828 56.4701 223.921 56.0518C226.79 55.4842 229.749 54.6177 232.618 54.8268C238.716 55.2152 243.947 57.6653 246.876 63.4319C247.922 65.5234 248.579 67.824 249.267 70.0649C250.074 72.7241 251.598 74.8754 253.541 76.8175C256.859 80.134 261.133 81.7176 265.347 83.3609C267.051 84.0182 267.769 85.2732 268.097 86.8567C268.456 88.6494 267.649 90.1434 266.184 91.0995C263.913 92.6233 261.402 93.43 258.563 92.6831C257.636 92.444 256.56 92.5635 255.603 92.6831C254.258 92.8623 253.9 95.0733 255.006 96.388C256.5 98.1807 258.084 99.9137 259.639 101.647C259.788 101.796 259.997 101.916 260.057 102.065C261.163 105.77 263.674 104.515 266.214 104.067C268.725 103.649 271.206 104.485 273.507 105.531C277.423 107.294 280.382 110.282 283.192 113.479C286.3 117.034 288.631 121.038 290.634 125.221C292.457 129.015 293.922 132.989 294.4 137.232C294.729 139.981 295.028 142.76 294.998 145.508C294.908 151.006 293.234 156.145 290.335 160.717C288.064 164.332 285.433 167.798 282.534 170.905C279.127 174.551 274.942 177.24 270.279 179.092C268.934 179.63 268.516 180.227 268.934 181.901C270.518 188.026 271.804 194.27 273.208 200.455C273.896 203.563 274.942 206.61 275.211 209.748C275.57 213.781 275.659 217.904 273.926 221.729C272.581 224.657 271.056 227.525 269.502 230.334C268.097 232.874 265.587 234.248 263.136 235.443C257.487 238.162 251.808 240.851 246.039 243.271C241.017 245.423 235.817 247.096 230.377 248.022C226.102 248.739 221.798 249.486 217.494 250.084C215.223 250.412 212.891 250.592 210.59 250.681C207.242 250.861 203.865 251.1 200.547 250.98C191.729 250.622 183.629 248.201 176.785 242.315C174.961 240.762 172.989 239.357 171.285 237.684C167.788 234.218 165.546 230.095 164.679 225.165C163.843 220.444 162.647 215.753 161.75 211.032C161.033 207.417 160.525 203.742 159.927 200.127C159.329 196.631 158.672 193.165 158.164 189.639C157.745 186.95 157.536 184.231 157.237 181.512C156.759 177.329 156.191 173.176 155.772 168.993C155.384 165.318 155.204 161.613 154.816 157.968C154.517 154.681 154.009 151.424 153.65 148.138C153.411 145.927 153.202 143.716 153.052 141.505C152.813 137.86 152.664 134.214 152.425 130.569C152.425 130.27 152.066 130.001 151.857 129.703C151.648 129.942 151.349 130.151 151.289 130.42C150.362 134.125 149.555 137.86 148.539 141.535C146.925 147.421 145.102 153.277 143.518 159.163C142.113 164.422 140.977 169.77 139.572 175.029C137.988 180.974 136.314 186.92 134.581 192.806C132.937 198.394 131.233 203.981 129.41 209.508C127.587 215.066 125.494 220.534 122.655 225.673C120.473 229.617 118.082 233.441 114.585 236.369C111.147 239.238 107.262 241.389 102.659 241.718C101.104 241.807 99.5202 241.449 97.9361 241.479C94.3493 241.508 90.7327 241.837 87.1459 241.688C83.4097 241.538 79.6735 240.911 75.9373 240.552C70.2583 240.044 64.7288 238.73 59.2291 237.236C55.1043 236.1 51.0393 234.696 47.0042 233.232C42.0127 231.439 37.2901 229.079 33.0159 225.912C31.1329 224.508 29.22 223.103 27.5163 221.52C25.3343 219.458 23.0926 217.367 21.3291 215.006C18.8782 211.72 17.5929 207.895 16.9951 203.802C16.3674 199.469 17.2342 195.406 18.5195 191.342C19.9243 186.98 21.09 182.558 22.4649 178.196C22.8236 177.06 22.3752 176.612 21.5981 176.343C15.2615 174.043 9.6124 170.696 5.09908 165.677C2.67802 163.017 1.3031 159.82 0.615644 156.325C0.346638 154.98 0.137412 153.606 0.0477429 152.231C-0.251153 148.287 0.91454 144.522 1.84112 140.728C2.94703 136.097 4.02305 131.406 5.45775 126.864C7.55002 120.142 9.76185 113.419 12.3622 106.875C14.604 101.198 17.5032 95.7606 22.0166 91.458C25.0952 88.5598 28.8912 86.8567 33.0757 86.05C36.1543 85.4524 39.1134 85.9604 42.1322 86.3787C43.5072 86.5878 43.8658 86.0201 44.0153 84.6756C44.2843 82.2554 45.5695 80.1938 47.0939 78.3413C48.977 75.9809 50.9497 73.6802 52.8925 71.3198C54.2375 69.6765 54.8353 67.7942 55.0445 65.6429C55.5228 60.7428 56.8678 56.0817 60.4247 52.5262C62.9653 49.9865 66.1336 48.373 69.6904 47.4767C72.9783 46.67 76.0569 46.5803 79.4344 47.4169C83.6189 48.4627 87.923 48.0743 92.0478 46.5206C92.3467 46.4011 92.6755 46.3114 93.0342 46.1321ZM283.969 121.486C283.879 121.486 283.789 121.486 283.7 121.456C283.789 121.516 283.879 121.576 283.969 121.785C284.058 121.934 284.178 122.084 284.268 122.382C284.566 123.368 284.835 124.325 285.164 125.311C286.151 128.179 287.286 131.017 288.123 133.916C288.811 136.395 289.289 138.965 289.588 141.505C289.767 143.088 289.468 144.702 289.349 146.315C289.319 146.524 289.199 146.734 289.11 146.943C288.99 146.704 288.781 146.465 288.751 146.196C288.542 144.403 288.452 142.58 288.123 140.788C287.615 138.039 287.077 135.26 286.36 132.571C285.134 127.91 283.162 123.518 280.681 119.365C277.423 113.927 273.836 108.937 266.962 107.772C265.736 107.592 264.511 107.324 263.285 107.324C261.223 107.294 262.299 109.355 261.492 110.192C261.372 110.341 261.312 110.61 261.253 110.849C261.073 111.447 261.193 111.566 261.88 111.596C262.598 111.626 263.315 111.596 264.002 111.716C265.347 111.985 266.663 112.283 267.948 112.702C269.383 113.15 271.056 113.419 272.162 114.315C273.806 115.6 275.181 117.303 276.466 119.006C279.366 122.831 281.488 127.133 283.73 131.346C285.702 135.021 286.659 138.905 287.197 142.909C287.675 146.285 287.077 149.632 286.031 152.859C285.164 155.488 284.357 158.207 282.265 160.239C280.262 162.181 278.409 164.272 276.347 166.125C273.896 168.336 271.176 170.188 268.008 171.234C267.171 171.503 266.752 172.071 266.932 172.967C267.021 173.445 267.141 173.893 267.23 174.341C267.559 175.895 267.888 176.074 269.263 175.327C273.866 172.758 278.379 170.128 281.787 165.886C284.566 162.42 287.107 158.864 288.93 154.801C291.77 148.556 291.561 142.162 290.096 135.678C289.199 131.645 287.526 127.91 285.762 124.205C285.403 123.458 284.776 122.89 284.268 122.084C284.178 121.934 284.058 121.785 283.969 121.486ZM275.6 120.291C275.39 120.351 275.211 120.41 275.002 120.47C274.912 120.5 274.793 120.649 274.793 120.649C274.643 120.56 274.553 120.44 274.464 120.351C275.659 119.454 274.314 118.976 274.045 118.498C273.328 117.363 272.581 115.869 271.505 115.48C269.412 114.704 267.111 114.435 264.869 114.196C261.283 113.807 257.845 114.674 254.468 115.719C251.867 116.526 251.807 116.556 252.973 119.185C253.033 119.275 253.153 119.335 253.182 119.395C253.332 120.978 254.258 120.5 255.125 120.142C258.443 118.797 261.91 118.259 265.437 118.976C271.594 120.201 276.138 123.637 278.887 129.344C280.531 132.72 281.637 136.276 282.474 139.921C283.162 142.819 283.879 145.747 283.012 148.676C281.667 153.396 279.067 157.49 275.749 161.045C273.298 163.645 270.339 165.587 266.962 166.872C265.856 167.26 265.557 167.828 266.005 169.023C266.513 170.487 267.35 169.262 267.978 169.411C268.187 169.441 268.456 169.142 268.695 169.023C273.717 166.364 277.811 162.539 281.637 158.446C282.265 157.759 282.773 156.892 283.042 156.026C283.819 153.516 284.447 150.946 285.164 148.407C286.091 145.24 285.523 142.102 285.015 138.965C284.447 135.35 282.534 132.272 280.92 129.105C279.396 126.087 277.393 123.309 275.6 120.291ZM12.7209 132.989C12.6312 133.467 12.6014 133.945 12.4818 134.423C12.1231 135.738 11.6748 137.053 11.4058 138.397C11.1368 139.563 11.1069 140.788 10.8977 141.983C10.5689 143.925 9.9113 145.867 9.94119 147.809C10.0607 153.217 12.4818 157.759 16.2479 161.494C17.9815 163.227 20.2531 164.452 22.3155 165.826C23.1524 166.394 24.2284 166.663 23.9295 168.007C23.7801 168.635 23.5409 169.262 23.3317 169.889C23.3018 170.009 23.2719 170.158 23.2122 170.308C23.1524 170.158 23.0328 170.009 23.0328 169.86C23.1225 168.664 22.5845 167.947 21.4786 167.41C18.4298 165.945 15.6202 164.153 13.5279 161.344C10.5091 157.281 8.44671 152.888 8.44671 147.779C8.41682 146.405 9.22384 145.03 9.25373 143.656C9.31351 139.174 10.3895 134.872 11.5851 130.629C12.7807 126.416 14.5741 122.412 16.0685 118.289C17.6228 113.897 19.2667 109.505 21.8671 105.62C23.6306 102.961 25.3941 100.153 27.7554 98.121C31.1628 95.2227 35.3174 93.4599 40.0101 93.5495C41.7736 93.6093 43.5669 93.6989 45.3304 93.8782C46.8847 94.0276 46.9445 92.7727 47.2135 91.8464C47.4526 90.9501 46.9744 90.3226 45.8684 90.233C42.7001 89.994 39.5617 89.5159 36.3934 89.3964C29.8476 89.1275 24.9756 92.205 21.5981 97.5533C19.745 100.451 18.4298 103.708 16.8158 106.756C13.8268 112.463 11.9139 118.588 9.94119 124.683C8.23748 130.001 7.10168 135.529 5.6072 140.967C4.38173 145.508 3.75405 150.05 4.4714 154.741C4.94963 157.789 6.14521 160.388 8.26737 162.599C12.3921 166.961 17.4136 169.979 22.8535 172.489C23.8697 172.967 24.0192 172.429 24.1985 171.861C24.8561 169.71 25.4539 167.589 25.9919 165.408C26.1712 164.691 26.2908 163.794 25.1849 163.466C21.7177 162.39 18.7586 160.537 16.0088 158.147C12.0036 154.651 10.7781 150.289 12.0932 145.359C14.0361 138.039 16.2479 130.748 18.5793 123.548C20.8509 116.586 23.8099 109.893 28.6521 104.276C29.5189 103.29 30.7742 102.513 31.9997 101.945C34.8392 100.661 37.8281 101.318 40.6975 101.856C43.7762 102.453 44.7027 102.184 44.8522 99.7942C44.9419 98.8679 44.3441 98.599 43.6865 98.6588C41.0562 98.8082 38.4558 99.0472 35.8554 99.1966C35.2576 99.2265 34.6897 98.9277 34.092 98.7783C34.6001 98.4197 35.0484 97.9716 35.6163 97.7624C38.127 96.6569 40.7872 96.5374 43.4773 96.5374C44.0153 96.5374 44.643 96.7167 45.0913 96.4776C45.5994 96.2386 45.9282 95.641 46.3467 95.1929C45.9282 95.163 45.5098 95.0733 45.0913 95.0435C44.374 95.0136 43.6566 94.9837 42.9393 95.0435C39.3226 95.3422 35.706 95.641 32.6573 97.8521C30.3558 99.4954 27.8151 100.959 26.0517 103.081C21.4786 108.489 19.2368 115.241 16.3077 121.635C16.3077 121.725 16.3077 121.815 16.2778 121.904C16.3376 121.815 16.3973 121.725 16.6066 121.635C16.6364 121.815 16.7261 122.114 16.6962 122.114C15.68 122.621 15.7697 123.667 15.4708 124.534C15.0224 125.789 14.335 126.984 13.9165 128.239C13.6176 129.075 13.6176 130.001 13.3187 130.898C13.1693 131.585 13.0198 132.302 12.7209 132.989ZM263.345 214.409C263.106 214.259 262.807 214.17 262.628 213.96C260.057 211.421 256.859 209.987 253.392 209.21C250.283 208.493 247.115 208.015 243.976 207.357C243.229 207.208 242.542 206.73 241.824 206.401C242.572 205.833 243.289 205.266 244.036 204.698C244.066 204.668 244.126 204.698 244.186 204.698C247.593 203.981 251.12 204.041 254.438 204.818C258.174 205.654 261.91 206.909 265.138 209.18C266.872 210.405 268.546 211.72 270.219 213.034C270.698 213.393 271.086 213.841 271.535 214.229C271.594 213.632 271.804 213.004 271.684 212.407C271.146 209.329 270.369 206.252 269.95 203.144C269.562 200.246 268.605 198.184 265.557 197.079C262.598 196.003 259.788 194.599 256.59 194.241C254.527 194.001 252.465 193.553 250.373 193.374C247.025 193.075 243.648 192.776 240.27 192.806C237.371 192.836 234.501 193.374 231.632 193.643C229.151 193.882 226.7 194.151 224.249 194.211C219.108 194.33 214.087 195.227 209.125 196.362C203.745 197.587 198.335 198.872 193.045 200.485C188.621 201.83 184.317 203.712 179.953 205.266C179.445 205.445 178.757 205.206 178.16 205.146C178.578 204.728 178.907 204.13 179.415 203.951C184.586 201.889 189.757 199.828 194.987 197.916C197.737 196.93 200.577 196.183 203.386 195.466C206.734 194.599 210.112 193.852 213.489 193.165C216.956 192.448 220.423 191.82 223.921 191.283C226.312 190.894 228.733 190.655 231.154 190.356C234.472 189.968 237.789 189.37 241.137 189.221C245.321 189.012 249.476 189.43 253.661 189.968C258.234 190.536 262.568 191.671 266.663 193.673C267.679 194.181 267.649 193.703 267.529 193.045C267.171 191.223 266.752 189.4 266.334 187.578C265.347 183.305 264.451 179.002 263.315 174.76C261.342 167.29 259.22 159.85 257.188 152.381C256.53 149.96 255.843 147.54 255.275 145.09C254.557 141.953 253.96 138.756 253.272 135.619C252.764 133.438 252.106 131.286 251.718 129.105C251.12 125.878 250.612 122.651 250.223 119.395C249.954 117.273 249.566 115.421 247.145 114.733C246.487 114.554 245.889 113.957 245.441 113.419C243.618 111.148 242.96 108.489 243.02 105.62C243.08 104.037 243.349 102.423 243.289 100.81C243.14 95.8502 241.197 93.1014 236.594 91.1891C235.039 90.5617 232.23 91.2788 231.512 92.3843C230.227 94.2965 229.869 96.4776 230.197 98.6887C230.616 101.437 230.048 103.888 228.135 105.8C227.089 106.846 225.594 107.503 224.219 108.16C223.412 108.519 223.084 108.997 223.293 109.744C224.817 114.883 225.833 120.142 226.581 125.43C227.328 130.539 228.255 135.619 228.942 140.728C229.39 144.074 229.6 147.451 229.869 150.797C229.928 151.693 229.839 152.62 229.779 153.516C229.779 153.755 229.6 153.964 229.48 154.203C229.331 153.934 229.091 153.725 228.972 153.426C227.896 150.767 228.075 147.899 227.746 145.12C227.567 143.417 227.238 141.744 226.939 140.071C226.551 137.83 226.073 135.559 225.684 133.288C225.146 129.972 224.757 126.625 224.16 123.309C223.442 119.275 222.576 115.301 221.798 111.297C221.41 109.146 221.051 108.907 218.869 108.13C217.644 107.682 216.179 106.905 215.611 105.83C214.057 102.931 212.951 99.7942 211.636 96.7466C211.427 96.2386 211.098 95.8203 210.829 95.3422C210.59 95.7904 210.201 96.2386 210.171 96.7167C209.932 99.8539 209.603 103.021 209.574 106.188C209.544 110.401 209.633 114.674 209.872 118.887C210.112 122.711 210.62 126.536 211.038 130.36C211.217 131.973 211.367 133.587 211.636 135.17C212.323 139.144 213.011 143.118 213.728 147.062C214.386 150.468 215.013 153.874 215.761 157.281C216.627 161.135 217.524 164.989 218.54 168.844C219.258 171.652 220.035 174.491 221.081 177.18C221.978 179.451 224.07 180.048 226.192 178.046C226.999 177.269 227.717 176.463 228.524 175.716C228.793 175.477 229.211 175.417 229.57 175.268C229.6 175.626 229.749 176.044 229.629 176.373C229.36 177.12 229.151 177.957 228.643 178.494C227.358 179.839 226.312 181.452 224.19 181.721C221.111 182.08 219.258 179.51 218.242 177.269C217.464 175.507 216.926 173.624 216.448 171.742C214.984 166.005 213.549 160.269 212.264 154.502C211.247 150.02 210.351 145.508 209.574 140.967C209.006 137.68 208.677 134.334 208.378 131.017C207.9 125.998 207.332 121.008 207.212 115.988C207.123 111.596 207.601 107.174 207.72 102.782C207.81 100.063 208.139 97.4338 209.424 94.9538C209.633 94.5355 209.424 93.5197 209.065 93.3105C206.854 91.966 204.373 91.1891 201.802 91.3086C197.737 91.5178 194.987 93.9081 192.447 96.9258C190.414 99.346 188.232 101.736 184.705 102.304C183.39 102.513 182.254 102.423 181.447 101.677C180.371 100.661 179.535 99.346 178.787 98.0313C178.07 96.7465 177.233 96.2087 175.828 96.627C174.722 96.9856 173.646 97.4636 172.54 97.7027C168.954 98.5094 165.666 98.2106 163.215 95.0733C163.095 94.924 162.766 94.7148 162.707 94.7746C162.527 94.8941 162.378 95.1331 162.318 95.3422C162.139 96.1788 162.019 97.0154 161.78 97.8222C160.196 102.902 158.672 107.981 157.028 113.03C155.533 117.512 153.71 121.904 154.517 126.834C154.995 129.673 155.055 132.571 155.473 135.439C155.982 138.965 156.699 142.491 157.237 146.046C157.775 149.811 158.283 153.576 158.731 157.37C159.269 162.151 159.748 166.931 160.226 171.682C160.345 172.937 160.375 174.192 160.525 175.447C161.003 179.122 161.541 182.797 162.019 186.472C162.318 188.803 162.557 191.133 162.916 193.434C163.484 196.93 164.082 200.425 164.709 203.891C165.337 207.268 165.995 210.614 166.682 213.99C167.19 216.56 167.937 219.1 168.266 221.669C168.894 226.808 170.777 231.23 174.603 234.756C176.127 236.16 177.711 237.535 179.325 238.879C182.045 241.12 184.945 243.002 188.322 244.198C191.191 245.213 194.001 246.08 197.05 246.229C200.069 246.409 203.147 246.946 206.166 246.767C211.367 246.409 216.568 245.721 221.768 245.004C225.804 244.437 229.958 244.018 233.874 242.853C239.314 241.21 244.664 239.148 249.924 236.907C254.408 235.025 258.652 232.485 263.136 230.543C266.065 229.258 267.111 226.689 268.396 224.239C268.665 223.701 268.695 222.685 268.366 222.207C266.782 219.637 265.049 217.187 263.345 214.409ZM36.9315 223.522C41.2057 225.882 45.4799 228.332 50.1426 229.856C57.1368 232.157 64.1907 234.128 71.424 235.533C76.8639 236.608 82.3636 236.967 87.8633 237.236C90.0452 237.355 92.257 237.206 94.439 237.296C95.6645 237.355 96.9497 237.475 98.0556 237.923C99.9685 238.67 101.702 238.102 103.496 237.654C106.694 236.877 109.473 235.204 112.163 233.352C112.432 233.172 112.522 232.754 112.701 232.455C112.313 232.396 111.924 232.216 111.566 232.276C109.713 232.724 107.829 233.113 106.036 233.71C102.18 234.995 98.1752 234.756 94.2297 235.114C92.3467 235.294 90.4039 235.055 88.491 234.846C86.1297 234.607 83.7385 234.397 81.4071 233.889C77.91 233.143 74.4429 232.306 71.0056 231.23C68.8834 230.603 66.821 229.587 64.8184 228.541C64.3402 228.302 64.2505 227.346 63.9815 226.719C64.4896 226.659 65.0276 226.42 65.476 226.539C67.7177 227.047 69.8996 227.675 72.1115 228.213C74.8314 228.87 77.5514 229.557 80.3012 230.065C82.9016 230.573 85.5319 231.021 88.1622 231.26C91.719 231.559 95.3357 231.858 98.8925 231.738C102.718 231.619 106.574 231.141 110.37 230.663C112.223 230.424 114.435 230.991 115.72 229.019C117.783 225.792 119.815 222.536 121.848 219.309C121.967 219.1 121.878 218.771 121.878 218.502C121.609 218.592 121.369 218.621 121.13 218.741C120.891 218.89 120.652 219.04 120.443 219.249C117.185 222.207 113.12 223.342 108.995 224.03C106.036 224.537 102.987 224.358 99.9685 224.388C98.9224 224.388 97.8763 224.149 96.86 223.97C94.1401 223.432 91.45 222.834 88.7301 222.326C86.7275 221.968 84.695 221.759 82.6625 221.4C82.3337 221.34 82.0348 221.012 81.7359 220.803C81.975 220.593 82.1843 220.235 82.4234 220.205C83.3798 220.056 84.3662 219.876 85.3227 219.966C88.4611 220.295 91.5696 220.952 94.6781 221.072C98.0855 221.221 101.493 221.072 104.87 220.773C107.411 220.564 109.952 220.145 112.373 219.458C115.9 218.442 119.038 216.59 121.848 214.229C123.372 212.915 124.926 211.66 125.554 209.628C126.57 206.341 127.586 203.025 128.603 199.708C130.097 194.838 131.651 189.998 133.026 185.098C134.611 179.48 135.956 173.774 137.51 168.156C139.871 159.671 142.292 151.185 144.653 142.73C145.67 139.144 146.477 135.529 147.732 132.033C148.838 128.956 148.958 125.55 150.87 122.741C151.11 122.412 151.229 121.964 151.229 121.546C151.229 121.217 151.02 120.859 150.87 120.5C150.631 120.709 150.332 120.859 150.183 121.098C149.227 122.442 148.36 123.846 147.373 125.161C144.474 128.986 140.977 131.764 136.015 132.81C132.578 133.527 128.991 131.406 128.304 128.059C127.437 123.727 127.108 119.305 126.421 114.913C126.062 112.522 125.644 110.102 124.926 107.772C122.984 101.467 119.217 100.75 114.256 101.437C111.207 101.856 108.278 103.35 105.319 104.366C103.047 105.142 100.895 106.338 98.3246 105.352C95.1862 104.156 93.1238 101.945 91.7788 98.9277C91.0913 97.4636 90.2544 97.2844 89.1186 98.4795C88.2518 99.3759 87.4747 100.362 86.6976 101.348C84.8145 103.798 83.4097 106.487 82.0647 109.296C79.7333 114.166 76.8639 118.767 74.4727 123.637C72.0816 128.537 68.7041 132.362 63.5929 134.483C60.335 135.828 56.5689 135.051 54.656 131.346C53.5202 129.135 53.1316 126.775 52.9822 124.414C52.8028 121.247 53.1017 118.05 53.2213 114.853C53.2512 114.106 53.3109 113.329 53.4604 112.612C54.4169 108.041 55.463 103.529 55.3434 98.8381C55.2538 95.7606 53.9087 93.669 51.2486 92.3843C50.5611 92.0257 49.7541 91.7568 49.6046 93.1013C49.4851 94.177 49.1563 95.1929 48.8873 96.2386C48.14 99.0173 47.3629 101.796 46.6456 104.575C45.3304 109.654 44.1647 114.793 42.73 119.843C41.5046 124.175 39.9204 128.418 38.5754 132.75C37.2304 137.142 36.0049 141.535 34.7196 145.957C33.7034 149.452 32.6871 152.978 31.7008 156.504C29.9074 162.928 28.1738 169.352 26.3804 175.805C25.7827 177.927 25.0952 180.048 24.5572 182.199C24.0192 184.231 25.3044 185.845 26.0218 187.548C27.9048 191.97 30.6547 195.794 34.4805 198.692C37.2005 200.754 40.0998 202.607 42.999 204.459C47.9308 207.626 53.4305 209.538 58.99 211.271C60.3649 211.72 61.68 212.257 62.9952 212.765C63.0848 212.825 63.1147 213.004 63.1745 213.124C62.6365 213.303 62.0387 213.692 61.5306 213.632C59.5579 213.303 57.5851 212.795 55.6124 212.466C51.5475 211.809 47.6319 210.614 43.9555 208.851C37.9477 205.953 32.0595 202.816 27.8151 197.378C25.8125 194.808 23.9893 192.179 23.6007 188.803C23.5708 188.504 23.2122 188.235 23.0029 187.966C22.8236 188.265 22.5247 188.534 22.4649 188.862C22.2856 189.579 22.3752 190.416 22.1062 191.103C20.7313 194.778 20.1036 198.573 20.6715 202.457C21.0003 204.608 21.359 206.849 22.2856 208.791C23.9893 212.317 26.231 215.514 29.489 217.875C31.9399 219.667 34.361 221.55 36.9315 223.522ZM158.433 81.1499C157.805 79.4169 157.087 77.7139 156.579 75.951C156.4 75.3534 156.639 74.6065 156.669 73.9492C157.267 74.2479 158.104 74.4272 158.403 74.9053C159.389 76.6681 160.226 78.5206 161.123 80.3432C161.242 80.5822 161.421 80.7914 161.601 81.0005C161.84 80.8212 162.228 80.642 162.288 80.4029C162.737 78.9389 163.036 77.445 163.514 75.9809C164.919 71.7083 164.59 67.2265 164.948 62.8642C165.217 59.5178 166.533 56.7689 168.416 54.1097C170.598 51.0621 172.869 48.0145 174.722 44.7577C176.127 42.2778 176.725 39.4095 175.918 36.5112C174.872 32.7465 172.032 30.8343 168.386 30.2367C165.666 29.8184 163.006 30.3562 161.78 33.1349C160.883 35.1966 160.405 37.4673 159.957 39.6784C158.731 45.8632 156.221 51.2414 151.02 55.0957C148.031 57.2769 144.624 58.5915 140.947 58.8306C136.494 59.1592 132.907 57.0677 130.037 53.9006C127.945 51.5402 126.212 48.8212 124.358 46.2517C122.655 43.8912 120.562 42.0985 117.573 41.8894C113.419 41.5906 109.503 42.6363 105.797 44.4589C100.178 47.2078 94.8873 50.7036 88.5208 51.839C85.7112 52.3469 82.9016 52.4067 80.1219 51.839C77.9399 51.3908 75.7281 50.2255 73.6358 50.4048C69.1225 50.8231 65.1771 52.9445 62.4571 56.7092C59.7671 60.444 58.7807 64.627 59.8269 69.1088C60.3649 71.3796 61.2616 73.5906 61.949 75.8315C62.0686 76.3394 61.9789 76.8773 61.9789 77.4151C61.5904 77.1163 61.0822 76.9071 60.873 76.5187C59.9763 74.9053 59.1693 73.2321 58.3025 71.6186C58.0335 71.1406 57.7346 70.6924 57.4357 70.2442C57.2265 70.6326 57.077 71.0509 56.808 71.3497C55.1641 73.2918 53.6098 75.2638 51.8762 77.0864C49.784 79.2675 48.0504 81.6578 46.9146 84.4664C46.2271 86.1098 46.4961 87.3049 48.14 87.6634C50.4117 88.1116 52.474 89.4562 55.0744 88.8586C57.4357 88.3208 59.9763 88.7988 62.3077 89.6653C62.6963 89.8147 62.9952 90.1434 63.3538 90.3824C62.9952 90.5318 62.6365 90.8306 62.2778 90.8306C60.7236 90.8007 59.1693 90.6513 57.615 90.5617C57.1667 90.5617 56.6885 90.6812 56.2102 90.7111C56.4195 91.1294 56.6287 91.5477 56.8678 91.9361C57.4357 92.952 58.2427 93.8782 58.5715 94.9837C59.7073 98.8679 59.1095 102.782 58.4818 106.666C58.0036 109.774 57.4058 112.851 57.1667 115.959C56.9276 118.648 57.0172 121.367 57.1368 124.085C57.2265 125.699 57.5553 127.372 58.0634 128.926C58.4221 130.061 59.2291 130.987 60.7235 130.898C64.1011 130.719 66.7015 128.986 68.4052 126.326C70.617 122.89 72.4701 119.185 74.3831 115.54C76.4455 111.626 78.2388 107.533 80.4806 103.738C82.244 100.78 84.3064 97.9417 86.6079 95.3721C88.9094 92.8623 91.0316 92.5635 93.1836 93.938C94.8873 95.0136 95.3954 96.9258 95.9633 98.7484C96.8301 101.557 98.7431 103.2 100.865 102.782C102.18 102.513 103.406 101.945 104.631 101.437C107.232 100.392 109.772 99.1667 112.432 98.2106C114.764 97.374 117.245 97.1051 119.755 97.7027C121.609 98.1508 123.432 98.8978 125.405 98.0612C126.212 97.7027 127.138 97.613 128.005 97.4338C128.184 97.4039 128.364 97.4338 128.543 97.4338C128.513 97.7027 128.603 98.121 128.483 98.2106C127.646 98.6887 126.809 99.3161 125.883 99.4655C124.358 99.7045 125.225 100.362 125.554 100.84C126.301 101.945 127.288 102.902 127.915 104.037C130.575 108.967 130.605 114.494 131.263 119.843C131.532 122.233 131.95 124.623 132.458 126.954C132.727 128.179 133.624 128.866 134.969 128.806C138.496 128.717 140.857 126.476 143.039 124.205C144.922 122.293 146.417 119.962 148.061 117.811C151.588 113.12 154.637 108.19 156.31 102.543C157.237 99.4356 157.775 96.1789 158.522 93.0117C159.479 89.0976 160.465 85.2134 158.433 81.1499ZM256.321 89.3665C258.114 89.2769 259.937 89.3068 261.731 89.0379C262.897 88.8586 264.331 88.5299 264.511 87.036C264.69 85.4225 263.225 85.1835 262.149 84.9146C256.948 83.6298 252.405 81.2395 248.848 77.1163C246.876 74.8156 245.561 72.1863 244.813 69.2283C243.707 64.9557 241.376 61.4599 237.162 59.8464C232.29 57.9641 227.178 58.1732 222.157 59.3086C218.391 60.1452 214.984 61.8184 211.875 64.1191C211.337 64.5075 210.41 65.5533 209.693 64.4776C209.095 63.5813 209.932 62.8044 210.59 62.177C210.739 62.0575 210.948 61.9977 211.068 61.8782C213.31 59.966 215.91 58.7409 218.72 57.9342C219.318 57.7549 219.766 57.4561 218.959 56.7689C217.733 55.7531 216.598 54.5878 215.372 53.542C211.217 49.9566 206.465 49.4785 201.414 51.0621C199.262 51.7493 197.229 52.7652 195.107 53.4823C191.998 54.5579 188.86 55.0957 185.512 54.7671C182.613 54.4683 180.043 53.7213 178.04 51.4804C176.844 50.1359 176.516 50.2255 175.47 51.7194C174.603 52.9146 173.736 54.1396 172.72 55.1854C169.97 58.0238 168.625 61.3702 168.595 65.3142C168.565 67.0472 168.475 68.81 168.296 70.543C167.728 75.7419 165.875 80.5523 163.514 85.1536C162.677 86.8567 162.617 88.7092 163.245 90.4422C164.291 93.4001 166.533 95.8203 169.94 95.3124C171.315 95.1032 172.63 94.6849 173.975 94.2965C176.844 93.4599 179.295 93.6093 180.999 96.7167C182.434 99.3161 183.39 100.153 185.871 98.599C187.216 97.7325 188.322 96.4478 189.518 95.3422C191.371 93.6392 193.104 91.7568 195.107 90.2629C198.036 88.1116 201.473 88.0817 204.821 88.7988C207.691 89.4263 210.47 90.5915 212.114 93.1013C213.728 95.5514 214.834 98.3301 216.119 100.989C217.434 103.768 219.347 106.547 222.904 105.501C225.893 104.635 227.687 103.409 227.477 99.7344C227.418 98.2106 227.477 96.6569 227.477 95.1032C227.477 90.3525 230.436 87.783 235.159 88.4702C238.656 88.9781 241.227 90.9202 243.319 93.6392C245.561 96.5374 246.099 99.9436 246.338 103.469C246.457 105.381 246.457 107.533 247.294 109.176C248.998 112.433 252.495 112.881 255.693 110.939C257.397 109.923 258.563 108.399 258.174 106.517C257.845 104.874 256.829 103.29 255.872 101.826C254.498 99.7045 252.585 98.0014 251.837 95.402C251.12 92.7727 252.824 89.0379 256.321 89.3665ZM32.2986 142.999C32.6871 141.714 33.1056 140.459 33.4942 139.174C35.975 130.898 38.4857 122.621 40.9666 114.315C41.6839 111.925 42.4311 109.535 43.0289 107.114C43.2083 106.427 43.3577 105.322 42.192 105.232C39.6514 105.053 37.0809 104.963 34.5403 104.933C33.9425 104.933 33.255 105.232 32.717 105.561C30.296 107.025 28.8314 109.355 27.5461 111.716C24.0491 118.05 21.5084 124.773 19.6254 131.764C18.2206 136.933 16.5767 142.072 15.3213 147.271C14.6338 150.08 15.5305 152.888 17.8021 154.681C20.3129 156.683 23.1823 158.177 25.9022 159.94C26.7989 160.508 27.3369 160.209 27.6657 159.283C27.8151 158.804 27.9646 158.326 28.114 157.848C29.5189 153.008 30.8938 148.138 32.2986 142.999ZM278.439 141.057C277.513 137.232 276.466 133.438 274.404 130.031C272.521 126.894 270.01 124.534 266.423 123.398C263.016 122.353 259.609 122.382 256.141 122.86C254.767 123.04 254.109 123.876 254.378 124.952C254.886 126.924 255.454 128.896 255.992 130.868C257.457 136.485 258.891 142.102 260.356 147.69C261.641 152.59 262.956 157.49 264.242 162.36C264.511 163.436 265.049 163.555 265.975 163.107C270.04 161.135 273.328 158.207 275.719 154.442C277.513 151.693 279.366 148.825 279.156 145.299C279.097 143.925 278.798 142.58 278.439 141.057ZM147.373 44.1004C148.629 45.3553 149.944 46.6102 151.169 47.9249C152.036 48.8511 152.813 48.5523 153.321 47.6858C154.218 46.1321 155.055 44.5187 155.683 42.8455C155.922 42.2479 155.772 40.9631 155.384 40.7241C151.827 38.6625 149.585 35.4655 148.031 31.88C145.58 26.1732 143.637 20.2572 141.366 14.4907C140.08 11.204 138.347 8.06676 135.447 5.94538C132.937 4.12279 130.037 3.73436 126.959 4.72036C124.926 5.37769 123.073 6.15453 121.638 7.85761C119.606 10.2778 119.068 13.0864 119.277 16.134C119.516 19.57 120.831 22.528 123.522 24.6494C125.375 26.1135 127.467 27.2787 129.589 28.3544C133.804 30.5355 137.599 33.2545 140.947 36.571C143.249 38.8418 145.132 41.4711 147.373 44.1004Z" fill="#121214"/>
<path d="M252.746 219.966C255.137 222.656 254.838 227.974 252.208 230.454C248.771 233.741 244.646 235.922 240.073 237.177C235.41 238.491 230.688 239.746 225.935 240.732C223.036 241.33 220.017 241.479 217.058 241.658C213.92 241.868 210.751 242.136 207.613 241.927C203.1 241.629 198.526 241.509 194.133 239.925C190.456 238.581 187.856 235.623 187.946 232.306C188.035 229.856 189.799 228.512 191.353 227.167C195.717 223.373 201.067 221.371 206.328 219.399C210.692 217.755 215.265 216.59 219.778 215.425C222.319 214.797 224.919 214.469 227.549 214.23C230.478 213.991 233.437 213.812 236.367 213.961C239.505 214.11 242.703 214.409 245.722 215.186C248.442 215.903 251.072 217.277 252.746 219.966ZM248.801 221.67C247.964 221.072 247.187 220.295 246.23 219.907C242.823 218.443 239.146 217.935 235.47 217.815C233.139 217.755 230.777 217.905 228.416 218.114C225.845 218.323 223.275 218.502 220.734 219.01C217.237 219.757 213.83 220.803 210.333 221.67C204.176 223.193 198.556 225.972 193.176 229.229C191.502 230.215 190.905 232.516 191.921 233.8C193.027 235.205 194.402 236.34 196.165 236.908C200.529 238.402 205.102 239.029 209.645 239.208C214.936 239.417 220.256 239.477 225.547 238.76C229.94 238.192 234.125 236.997 238.13 235.234C241.059 233.95 243.869 232.336 246.469 230.484C250.086 227.944 251.341 225.404 248.801 221.67Z" fill="#121214"/>
<path d="M194.252 107.533C194.461 107.444 194.79 107.444 194.82 107.563C196.434 113.031 198.108 118.469 199.603 123.966C200.529 127.373 201.306 130.839 201.994 134.334C202.621 137.382 202.98 140.489 203.518 143.567C204.176 147.361 204.953 151.126 205.58 154.951C205.999 157.341 206.298 159.761 206.477 162.181C206.866 166.783 206.955 171.414 207.463 176.015C207.762 179.033 207.643 181.991 206.746 184.799C205.461 188.803 201.844 189.879 198.616 186.771C194.671 182.947 192.758 178.047 191.293 172.938C190.337 169.591 189.47 166.185 188.723 162.779C188.065 159.701 187.617 156.564 187.079 153.457C186.541 150.349 186.063 147.212 185.525 144.075C185.166 141.924 184.747 139.802 184.389 137.651C183.791 134.095 183.133 130.57 182.625 127.014C182.147 123.817 181.818 120.59 181.4 117.363C181.011 114.495 180.503 111.627 180.234 108.758C180.115 107.264 180.384 105.74 180.533 104.247C180.563 103.918 180.892 103.649 181.071 103.35C181.28 103.619 181.609 103.888 181.669 104.187C182.296 106.816 182.954 109.445 183.492 112.105C184.12 115.332 184.718 118.558 185.285 121.815C185.823 125.072 186.242 128.388 186.78 131.645C187.318 134.812 187.975 137.95 188.513 141.087C188.962 143.836 189.291 146.614 189.769 149.393C190.367 152.769 191.024 156.116 191.682 159.492C192.22 162.151 192.668 164.84 193.385 167.47C194.82 172.878 196.076 178.405 199.842 182.857C200.679 183.843 201.725 185.218 203.07 184.501C203.996 184.022 204.744 182.618 204.953 181.483C205.371 179.033 205.67 176.493 205.551 173.983C205.371 170.159 204.863 166.334 204.385 162.54C203.966 159.134 203.458 155.757 202.92 152.411C202.442 149.602 201.874 146.853 201.366 144.075C200.977 142.043 200.619 140.011 200.23 137.98C199.722 135.231 199.244 132.512 198.736 129.793C198.138 126.446 197.63 123.1 196.912 119.783C196.285 116.855 195.418 114.017 194.731 111.119C194.462 110.013 194.402 108.818 194.252 107.533Z" fill="#121214"/>
<path d="M232.212 205.535C233.826 205.625 235.261 205.714 236.725 205.864C236.935 205.864 237.233 206.192 237.263 206.402C237.263 206.581 236.994 206.969 236.785 206.999C233.557 207.627 230.329 208.194 227.101 208.822C223.753 209.479 220.406 210.196 217.058 210.913C212.903 211.81 208.689 212.527 204.594 213.662C199.931 214.947 195.298 216.411 190.815 218.174C186.302 219.907 181.968 222.058 177.574 224.06C176.647 224.478 175.84 225.195 174.884 225.524C174.196 225.733 173.031 225.882 172.672 225.494C171.985 224.747 172.463 223.761 173.21 223.134C175.003 221.729 176.707 220.086 178.68 219.04C182.296 217.128 186.033 215.395 189.858 213.961C194.491 212.228 199.214 210.824 203.966 209.449C207.942 208.314 211.977 207.298 216.012 206.491C218.792 205.924 221.631 205.744 224.441 205.565C226.981 205.416 229.522 205.535 232.212 205.535Z" fill="#121214"/>
<path d="M181.4 189.401C181.011 192 180.862 194.51 180.114 196.84C179.517 198.783 176.528 198.872 174.794 197.289C171.626 194.361 169.982 190.566 168.876 186.592C167.71 182.319 166.754 177.957 165.887 173.625C165.14 170.009 164.721 166.364 164.064 162.719C163.406 159.283 162.629 155.847 161.972 152.381C161.523 149.811 161.194 147.242 160.776 144.672C159.999 140.161 159.132 135.679 158.415 131.167C157.907 128 157.578 124.833 157.189 121.666C157.04 120.411 156.95 119.156 156.92 117.901C156.92 117.543 157.219 117.184 157.369 116.825C157.608 117.154 157.996 117.423 158.056 117.752C158.594 120.859 159.042 123.996 159.58 127.134C160.178 130.45 160.836 133.767 161.493 137.083C162.241 140.728 163.018 144.344 163.765 147.959C164.602 151.903 165.409 155.847 166.246 159.761C167.023 163.287 167.8 166.812 168.547 170.338C169.265 173.774 169.832 177.24 170.729 180.616C171.626 184.022 172.732 187.369 173.987 190.626C174.555 192.179 175.601 193.584 176.647 194.898C177.604 196.123 178.53 195.884 178.979 194.331C179.397 192.926 179.576 191.492 179.935 190.088C180.055 189.61 180.443 189.221 180.712 188.803C180.951 188.952 181.161 189.102 181.4 189.401Z" fill="#121214"/>
<path d="M234.603 147.272C234.125 143.836 233.617 140.579 233.139 137.292C232.81 134.932 232.511 132.572 232.212 130.181C232.092 129.106 231.943 128 231.943 126.895C231.973 126.506 232.421 126.148 232.69 125.759C233.019 126.058 233.587 126.297 233.677 126.656C234.334 129.375 234.932 132.123 235.5 134.872C236.217 138.458 236.935 142.043 237.562 145.658C238.04 148.347 238.339 151.096 238.788 153.815C239.385 157.281 239.983 160.777 240.671 164.243C241.149 166.514 241.807 168.725 242.374 170.995C243.092 173.714 244.317 176.224 246.141 178.375C246.858 179.182 247.575 179.989 248.263 180.796C248.502 181.094 248.681 181.483 248.89 181.841C248.412 181.931 247.934 182.11 247.486 182.08C245.005 181.931 243.719 180.108 242.374 178.375C239.953 175.268 239.117 171.473 238.22 167.739C237.293 163.914 236.516 160.06 235.829 156.176C235.38 153.726 235.201 151.246 234.902 148.796C234.842 148.318 234.693 147.869 234.603 147.272Z" fill="#121214"/>
<path d="M169.444 116.198C170.042 118.977 170.699 121.606 171.237 124.265C171.775 126.984 172.224 129.733 172.732 132.452C173.21 135.081 173.748 137.711 174.226 140.34C174.854 143.985 175.422 147.6 176.02 151.246C176.617 154.831 177.305 158.387 177.783 162.002C178.291 165.707 178.59 169.442 179.009 173.147C179.128 174.192 179.367 175.208 179.427 176.254C179.427 176.642 179.128 177.061 178.979 177.449C178.59 177.21 177.903 177.001 177.873 176.702C177.484 174.641 177.215 172.579 176.916 170.517C176.528 167.888 176.169 165.259 175.691 162.659C175.183 159.791 174.525 156.982 173.927 154.114C173.33 151.186 172.672 148.258 172.134 145.3C171.596 142.252 171.178 139.145 170.639 136.097C170.101 133.079 169.414 130.121 168.876 127.104C168.308 123.996 167.89 120.829 167.352 117.692C166.873 115.122 166.276 112.553 165.767 109.983C165.648 109.266 165.588 108.549 165.588 107.832C165.588 107.533 165.827 107.264 165.977 106.966C166.246 107.175 166.634 107.354 166.724 107.623C167.382 109.236 167.979 110.88 168.547 112.553C168.906 113.688 169.145 114.883 169.444 116.198Z" fill="#121214"/>
<path d="M220.854 164.303C219.987 160.478 219.001 156.833 218.254 153.128C217.686 150.499 217.387 147.81 216.968 145.15C216.61 142.85 216.191 140.579 215.892 138.278C215.593 135.858 215.444 133.438 215.235 131.018C215.205 130.958 215.324 130.839 215.354 130.839C215.534 130.898 215.773 130.958 215.833 131.078C216.251 131.914 216.759 132.721 216.938 133.587C217.805 137.89 218.463 142.222 219.36 146.495C220.465 151.843 221.751 157.162 222.946 162.48C223.096 163.197 223.126 163.914 223.275 164.601C223.305 164.811 223.544 164.99 223.664 165.169C223.843 165.02 224.052 164.87 224.142 164.661C224.261 164.273 224.411 163.854 224.441 163.436C224.56 160.448 224.799 157.46 224.71 154.443C224.56 150.349 224.321 146.226 223.813 142.133C223.185 137.173 222.229 132.243 221.452 127.283C221.003 124.325 220.675 121.337 220.256 118.379C220.107 117.333 219.778 116.347 219.688 115.332C219.658 114.824 220.017 114.316 220.196 113.808C220.406 114.166 220.734 114.525 220.824 114.913C221.482 117.782 222.079 120.68 222.647 123.578C223.275 126.745 223.903 129.942 224.411 133.139C224.829 135.529 225.128 137.95 225.308 140.4C225.666 144.732 225.786 149.124 226.264 153.457C226.742 157.49 226.623 161.434 225.636 165.348C225.547 165.707 225.337 166.036 225.188 166.394C224.859 167.201 224.291 167.918 223.365 167.559C222.737 167.32 222.199 166.693 221.781 166.155C221.362 165.647 221.153 165.02 220.854 164.303Z" fill="#121214"/>
<path d="M191.024 139.444C190.666 136.994 190.396 134.603 190.068 132.273C189.709 129.912 189.201 127.612 188.902 125.281C188.424 121.815 188.065 118.349 187.677 114.883C187.497 113.21 187.228 111.567 187.109 109.894C187.109 109.535 187.557 109.117 187.826 108.728C188.065 109.117 188.484 109.475 188.543 109.894C189.201 113.867 189.739 117.841 190.367 121.845C191.144 126.476 191.921 131.137 192.788 135.768C193.595 140.191 194.611 144.583 195.418 149.005C196.016 152.261 196.315 155.578 196.972 158.835C197.749 162.719 198.706 166.573 199.662 170.428C199.782 170.846 200.41 171.145 200.828 171.473C201.097 171.683 201.426 171.832 201.725 171.981C201.396 172.43 201.157 173.087 200.738 173.236C199.513 173.655 198.228 172.878 197.839 171.503C196.912 168.127 195.956 164.721 195.179 161.285C194.192 156.893 193.296 152.471 192.489 148.049C191.951 145.21 191.562 142.342 191.024 139.444Z" fill="#121214"/>
<path d="M247.366 124.265C247.844 126.297 248.233 128.329 248.651 130.331C249.249 133.169 249.847 136.008 250.445 138.846C251.252 142.7 251.969 146.585 252.866 150.409C254.061 155.608 255.556 160.777 256.662 165.976C257.259 168.695 257.558 171.503 257.558 174.282C257.558 177.509 256.542 180.616 254.898 183.455C254.749 183.724 254.33 183.843 254.031 184.022C253.942 183.754 253.733 183.455 253.762 183.186C253.912 181.871 254.061 180.557 254.36 179.272C255.078 176.075 255.078 172.967 254.36 169.74C253.314 164.93 252.567 160.03 251.64 155.19C250.773 150.768 249.787 146.375 248.95 141.953C248.203 137.92 247.575 133.856 246.858 129.823C246.589 128.418 246.23 126.984 245.961 125.58C245.782 124.534 246.29 124.116 247.366 124.265Z" fill="#121214"/>
<path d="M240.491 142.581C240.193 140.25 239.923 137.98 239.684 135.739C239.654 135.5 239.595 135.201 239.714 134.992C239.894 134.573 240.192 134.215 240.432 133.826C240.76 134.185 241.328 134.454 241.418 134.872C241.926 136.665 242.315 138.487 242.673 140.34C243.092 142.641 243.45 144.971 243.869 147.302C244.437 150.23 245.005 153.188 245.662 156.086C246.439 159.403 247.276 162.689 248.083 165.976C248.322 166.842 248.562 167.679 248.831 168.515C248.92 168.725 249.159 168.904 249.309 169.083C249.488 168.874 249.787 168.695 249.817 168.456C249.966 167.649 249.996 166.842 250.176 166.036C250.235 165.737 250.534 165.468 250.744 165.199C251.042 165.468 251.61 165.797 251.58 166.036C251.461 167.44 251.311 168.874 250.893 170.219C250.684 170.816 249.847 171.713 249.369 171.683C248.591 171.563 247.575 170.995 247.217 170.338C246.141 168.247 245.124 166.095 244.526 163.854C243.331 159.492 242.374 155.07 241.508 150.618C241 147.989 240.88 145.3 240.491 142.581Z" fill="#121214"/>
<path d="M185.883 231.171C184.957 231.38 184.508 231.858 184.628 232.844C184.628 232.874 184.359 232.964 184.15 232.964C184 232.934 183.881 232.964 183.791 233.023C182.805 233.262 181.788 233.561 180.802 233.741C180.623 233.77 180.413 233.322 180.174 233.143C177.843 231.261 177.514 230.006 178.77 227.137C178.919 226.958 178.949 226.839 179.068 226.749C179.218 226.659 179.248 226.54 179.367 226.45C179.517 226.241 179.547 226.062 179.606 225.853C179.816 225.793 179.995 225.763 180.264 225.643C180.294 225.464 180.264 225.345 180.204 225.255C181.878 224.209 183.492 223.014 185.256 222.178C190.337 219.757 195.567 217.726 201.037 216.291C203.458 215.634 205.79 214.768 208.211 214.17C212.156 213.214 216.131 212.347 220.107 211.541C221.781 211.212 223.454 211.093 225.158 210.913C225.397 210.913 225.666 211.033 225.905 211.093C225.666 211.242 225.427 211.451 225.188 211.511C223.813 211.84 222.408 212.138 221.033 212.407C217.476 213.094 213.86 213.513 210.363 214.439C205.013 215.873 199.722 217.576 194.462 219.309C189.948 220.773 185.913 223.164 182.177 226.062C180.862 227.107 179.696 228.123 179.965 229.886C180.055 230.544 180.623 231.29 181.22 231.679C181.549 231.918 182.416 231.679 182.864 231.35C184.389 230.275 185.764 229.02 187.288 227.914C188.035 227.376 188.932 227.018 189.739 226.57C189.201 227.227 188.663 227.914 188.095 228.572C187.378 229.408 186.63 230.245 185.883 231.171Z" fill="#121214"/>
<path d="M235.799 101.557C235.709 99.5855 235.59 97.7629 235.53 95.9403C235.53 95.7311 235.829 95.522 235.978 95.3128C236.068 95.522 236.247 95.7013 236.277 95.9403C236.546 97.0159 236.905 98.1214 236.964 99.2269C237.233 103.081 237.473 106.936 237.562 110.79C237.592 112.344 237.383 113.957 236.935 115.421C236.666 116.288 235.769 117.244 234.962 117.513C234.454 117.692 233.139 116.825 232.87 116.168C232.092 114.106 231.525 111.925 231.046 109.744C230.747 108.4 230.807 106.965 230.718 105.561C230.718 105.203 230.837 104.814 230.957 104.456C231.076 104.187 231.315 103.918 231.495 103.679C231.614 103.948 231.823 104.247 231.913 104.545C232.63 107.444 233.318 110.342 234.005 113.24C234.035 113.419 233.916 113.688 234.005 113.808C234.274 114.226 234.603 114.614 234.902 115.003C235.111 114.555 235.47 114.136 235.47 113.688C235.619 109.684 235.709 105.711 235.799 101.557Z" fill="#121214"/>
<path d="M187.886 211.511C187.168 212.108 186.451 212.885 185.524 213.274C182.715 214.499 179.845 215.604 176.976 216.68C175.003 217.397 172.971 217.785 171.297 215.903C170.49 214.977 170.341 213.871 170.669 212.706C170.729 212.467 170.998 212.168 171.207 212.138C171.417 212.138 171.686 212.407 171.835 212.646C173.628 215.485 174.107 215.664 177.275 214.588C180.324 213.543 183.343 212.467 186.421 211.451C186.84 211.332 187.348 211.481 187.886 211.511Z" fill="#121214"/>
<path d="M260.906 222.566C260.547 222.446 260.219 223.731 259.86 222.566C259.651 222.656 259.471 222.775 259.172 222.865C259.232 222.656 259.322 222.387 259.501 222.297C259.74 222.148 260.039 222.178 260.308 222.118C260.099 221.909 259.92 221.58 259.681 221.52C259.143 221.401 258.664 220.654 258.037 221.341C257.887 221.192 257.768 221.072 257.678 220.863C257.768 220.684 257.768 220.594 257.798 220.504C257.738 220.594 257.678 220.684 257.618 220.773C256.99 219.429 255.944 218.592 254.45 218.353C254.868 217.307 253.942 217.636 253.523 217.427C252.806 217.068 252.148 216.65 251.431 216.291C250.744 215.963 249.996 215.694 249.279 215.395C248.562 215.096 247.814 214.797 247.127 214.499C246.918 214.409 246.738 214.2 246.559 214.08C246.738 214.021 246.918 213.871 247.067 213.901C250.445 214.558 253.762 215.455 256.751 217.218C257.798 217.845 258.575 218.951 259.651 219.548C261.922 220.833 264.313 221.968 266.645 223.193C266.794 223.253 266.914 223.671 266.854 223.731C266.585 224.03 266.256 224.389 265.927 224.418C265.36 224.478 264.732 224.389 264.194 224.179C263.267 223.851 262.4 223.403 261.564 222.954C261.653 222.775 261.653 222.685 261.683 222.596C261.623 222.685 261.564 222.775 261.504 222.865C261.295 222.805 261.115 222.775 260.966 222.656C261.055 222.476 261.055 222.387 261.085 222.297C261.026 222.387 260.966 222.476 260.906 222.566Z" fill="#121214"/>
<path d="M260.517 182.319C260.517 179.75 260.757 177.24 260.547 174.76C260.368 172.071 259.77 169.412 259.322 166.753C259.172 165.677 258.963 164.631 258.814 163.526C258.784 163.227 258.903 162.868 258.933 162.54C259.083 162.839 259.322 163.137 259.412 163.466C259.92 165.707 260.488 167.918 260.876 170.189C261.384 172.938 261.683 175.716 262.102 178.495C262.371 180.198 262.341 181.871 261.833 183.544C261.743 183.843 261.922 184.232 262.012 184.56C261.862 184.56 261.743 184.56 261.593 184.56C260.458 184.56 260.069 183.724 260.517 182.319Z" fill="#121214"/>
<path d="M178.71 120.381C176.797 120.59 174.914 120.799 173.001 120.949C172.612 120.979 172.224 120.71 171.835 120.56C172.224 120.202 172.523 119.634 172.971 119.515C174.137 119.216 175.362 119.066 176.588 118.887C177.335 118.768 178.082 118.648 178.829 118.618C179.218 118.588 179.636 118.768 180.055 118.887C179.905 119.216 179.846 119.604 179.606 119.903C179.397 120.172 179.009 120.321 178.77 120.471C178.859 120.291 178.859 120.202 178.889 120.112C178.829 120.202 178.77 120.291 178.71 120.381Z" fill="#121214"/>
<path d="M217.028 118.29C215.773 118.2 214.547 118.08 213.352 117.991C213.053 117.961 212.724 117.991 212.515 117.841C212.007 117.513 211.528 117.094 211.05 116.706C211.648 116.527 212.246 116.198 212.814 116.228C214.697 116.347 216.55 116.586 218.433 116.796C218.642 116.825 218.851 117.035 219.061 117.154C218.911 117.333 218.702 117.483 218.642 117.692C218.553 117.871 218.642 118.11 218.642 118.319C218.642 118.409 218.582 118.558 218.523 118.588C218.313 118.648 218.044 118.738 217.835 118.708C217.596 118.618 217.357 118.439 217.028 118.29Z" fill="#121214"/>
<path d="M265.688 219.518C264.881 218.801 263.985 218.114 263.267 217.277C261.115 214.797 258.425 213.005 255.556 211.541C254.42 210.943 253.135 210.614 251.939 210.107C255.227 210.495 258.156 211.78 260.846 213.692C262.968 215.186 264.403 217.248 265.688 219.518Z" fill="#121214"/>
<path d="M240.88 208.911C242.494 208.822 244.078 208.822 245.692 208.822C245.782 208.822 245.872 208.911 245.931 208.941C245.782 209.001 245.632 209.091 245.453 209.121C244.706 209.24 243.929 209.24 243.211 209.449C241.358 209.957 241 210.973 242.046 212.527C242.165 212.736 242.255 212.945 242.375 213.154C242.135 213.094 241.836 213.124 241.687 213.005C240.79 212.198 239.953 211.391 239.087 210.585C239.684 210.047 240.282 209.509 240.88 208.911ZM239.834 210.614C239.804 210.674 239.744 210.734 239.714 210.794C239.804 210.794 239.894 210.764 239.834 210.614Z" fill="#121214"/>
<path d="M204.714 117.632C204.325 117.752 203.907 117.782 203.578 117.782C203.667 117.602 203.667 117.513 203.697 117.423C203.638 117.513 203.578 117.602 203.518 117.692C203.159 117.782 202.831 117.901 202.382 117.931C202.233 117.901 202.113 117.931 202.024 117.991C201.007 117.722 199.931 117.543 198.945 117.124C197.929 116.676 198.945 116.288 199.184 116.258C199.871 116.138 200.559 116.198 201.246 116.198C202.352 116.198 203.458 116.168 204.534 116.228C205.072 116.258 205.61 116.467 206.148 116.586C205.67 116.915 205.192 117.214 204.714 117.632Z" fill="#121214"/>
<path d="M164.363 123.907C163.855 123.817 163.376 123.668 162.928 123.459C163.018 123.279 163.018 123.19 163.048 123.1C162.988 123.19 162.928 123.279 162.868 123.369C162.27 123.459 161.673 123.638 161.075 123.638C160.776 123.638 160.268 123.339 160.238 123.1C160.178 122.831 160.477 122.263 160.716 122.204C162.48 121.755 164.243 121.367 166.037 121.038C166.246 121.008 166.604 121.337 166.724 121.606C166.784 121.726 166.455 122.114 166.246 122.204C165.618 122.532 164.961 122.801 164.303 123.07C164.034 123.19 163.735 123.249 163.466 123.339C163.765 123.518 164.064 123.668 164.363 123.907Z" fill="#121214"/>
<path d="M258.425 181.423C258.814 182.738 258.515 184.202 259.74 185.128C259.83 185.188 259.86 185.427 259.83 185.546C259.8 185.636 259.591 185.785 259.531 185.755C259.232 185.606 258.933 185.427 258.664 185.218C258.664 185.218 258.724 185.098 258.754 185.008C256.602 184.53 257.439 182.797 257.349 181.483C257.319 181.065 257.588 180.616 257.738 180.168C257.947 180.557 258.156 180.945 258.425 181.423Z" fill="#121214"/>
<path d="M194.85 117.931C194.701 118.08 194.551 118.2 194.312 118.23C194.163 118.2 194.043 118.23 193.953 118.29C193.266 118.29 192.578 118.379 191.921 118.26C191.502 118.2 191.114 117.811 190.725 117.602C191.054 117.333 191.413 116.885 191.801 116.825C192.668 116.706 193.565 116.736 194.462 116.855C194.641 116.855 194.731 117.483 194.85 117.931Z" fill="#121214"/>
<path d="M52.5832 115.212C52.9717 114.644 53.3603 114.256 53.7489 113.838C53.8684 114.525 54.1972 115.302 54.0478 115.929C53.3005 118.977 52.3739 121.994 51.5669 125.042C49.8034 131.795 48.0698 138.547 46.3064 145.27C44.8119 150.887 43.2576 156.474 41.7333 162.062C40.3882 167.051 38.9834 172.071 37.6384 177.091C36.9509 179.66 36.2934 182.2 35.7553 184.799C35.4266 186.323 35.3668 187.907 35.307 189.431C35.2771 189.879 35.6657 190.656 35.9945 190.715C36.4428 190.805 37.1602 190.536 37.4591 190.178C38.7742 188.594 40.2388 187.07 41.1654 185.277C44.8717 178.107 47.8606 170.637 50.4909 163.018C51.9555 158.805 53.4799 154.592 54.9743 150.379C55.1537 149.901 55.4526 149.393 55.8112 149.005C56.0803 148.706 56.4987 148.586 56.8574 148.377C56.9172 148.855 57.0965 149.363 56.9769 149.782C56.4389 151.574 55.8411 153.367 55.2135 155.16C52.643 162.301 50.3116 169.561 47.4123 176.583C45.3798 181.543 43.5864 186.712 40.2986 191.104C39.1329 192.687 37.8775 194.181 35.5162 194.121C33.8125 194.092 32.7963 193.135 32.3479 191.851C31.5409 189.64 31.5708 187.309 31.8996 184.919C33.0055 177.24 35.7553 170.009 37.9074 162.6C39.8203 155.937 41.6735 149.244 43.6163 142.581C45.2602 137.083 46.934 131.615 48.7274 126.148C49.8931 122.532 51.2979 118.947 52.5832 115.212Z" fill="#121214"/>
<path d="M77.2235 155.07C76.267 160.986 73.7264 166.424 71.8135 172.041C69.6315 178.405 67.2703 184.71 64.7595 190.924C63.5042 193.972 61.7706 196.87 60.1565 199.769C58.961 201.95 56.9882 203.025 54.4775 202.547C52.5646 202.189 51.6081 200.575 50.9506 198.932C49.3365 194.898 49.7849 190.745 51.1 186.771C54.2085 177.419 57.4366 168.097 60.8141 158.835C63.3248 151.933 66.1643 145.121 68.8544 138.278C68.9441 138.069 69.0038 137.8 69.1533 137.681C69.4522 137.442 69.781 137.322 70.1098 137.143C70.1695 137.442 70.3788 137.77 70.319 138.009C69.7212 140.4 69.1832 142.79 68.4359 145.15C66.9415 149.991 65.4171 154.831 63.7433 159.642C61.9798 164.721 59.9772 169.711 58.2436 174.82C56.6595 179.541 55.2547 184.321 53.7901 189.102C52.9233 192 52.4749 194.958 53.8498 197.826C54.2384 198.633 55.0155 199.769 55.6133 199.769C56.5399 199.769 57.7654 199.171 58.3333 198.424C61.6211 194.151 63.7433 189.281 65.5666 184.262C67.599 178.764 69.7212 173.326 71.7537 167.858C73.1286 164.093 74.384 160.299 75.729 156.504C75.9681 155.877 76.2371 155.279 76.5659 154.712C76.6855 154.532 77.074 154.562 77.343 154.473C77.343 154.682 77.3729 154.861 77.2833 155.01C77.1338 154.921 77.0441 154.921 76.9545 154.891C77.0441 154.951 77.1338 155.01 77.2235 155.07Z" fill="#121214"/>
<path d="M103.707 160.505C104.394 158.354 105.261 156.382 105.769 154.35C106.965 149.599 108.16 144.848 108.997 140.008C109.446 137.528 109.206 134.929 109.057 132.359C108.967 130.925 107.772 130.178 106.277 130.029C104.155 129.79 102.392 130.656 100.778 131.911C100.389 132.21 99.9407 132.479 99.4625 132.718C99.2233 132.837 98.9244 132.807 98.6255 132.867C98.6255 132.449 98.4761 131.971 98.6554 131.612C99.9706 128.774 102.362 127.459 105.351 127.041C106.038 126.951 106.785 126.981 107.503 127.041C111.299 127.489 113.152 129.73 113.301 133.584C113.57 140.008 111.867 146.044 109.894 152.049C108.011 157.875 106.068 163.702 103.976 169.439C102.242 174.219 100.269 178.88 98.4163 183.571C96.2045 189.158 93.9927 194.776 91.7509 200.363C90.8841 202.544 89.9875 204.725 89.031 206.847C88.8517 207.235 88.224 207.444 87.8055 207.713C87.7458 207.325 87.5066 206.876 87.5963 206.548C88.0446 204.845 88.5528 203.171 89.1506 201.528C90.7945 197.106 92.5281 192.744 94.1421 188.352C96.7126 181.27 99.2831 174.159 101.794 167.018C102.541 164.927 103.079 162.776 103.707 160.505Z" fill="#121214"/>
<path d="M110.988 162.39C112.094 159.283 113.08 156.265 114.156 153.277C115.471 149.632 116.876 146.047 118.251 142.431C118.371 142.133 118.61 141.894 118.789 141.625C118.998 141.953 119.477 142.372 119.417 142.641C118.819 145.091 118.191 147.511 117.474 149.901C114.963 158.267 112.393 166.603 109.882 174.969C108.208 180.616 106.624 186.263 105.07 191.94C103.516 197.558 102.081 203.205 101.633 209.091C101.304 213.094 102.858 215.933 106.325 216.979C107.132 217.218 107.999 217.248 108.806 217.457C109.105 217.516 109.314 217.785 109.583 217.965C109.374 218.174 109.195 218.502 108.926 218.592C103.665 220.564 99.4507 217.397 98.7931 212.288C98.3447 208.613 98.9126 205.057 99.7495 201.561C101.364 194.689 102.948 187.787 104.861 180.975C106.265 175.896 108.178 170.906 109.882 165.886C110.241 164.751 110.57 163.586 110.988 162.39Z" fill="#121214"/>
<path d="M92.7299 144.911C93.238 143.238 93.6863 141.684 94.2542 140.161C94.4336 139.683 94.9118 139.354 95.2406 138.936C95.39 139.503 95.7786 140.131 95.6889 140.639C95.2705 142.611 94.7922 144.553 94.2243 146.465C92.969 150.558 91.6538 154.652 90.3387 158.745C88.3959 164.811 86.3933 170.846 84.4804 176.911C82.8364 182.2 81.0729 187.488 79.6681 192.837C78.3231 197.976 77.3666 203.234 76.2607 208.433C75.9618 209.838 76.7091 210.883 77.3965 211.929C77.6058 212.228 77.6356 212.616 77.7253 212.945C77.2471 212.945 76.7091 213.094 76.3205 212.885C74.6467 211.959 73.1821 208.642 73.6005 206.73C74.7065 201.651 75.5733 196.512 76.9482 191.522C78.7416 184.979 80.9534 178.555 83.0158 172.101C84.6298 167.201 86.2438 162.271 87.9774 157.431C89.442 153.277 91.1457 149.184 92.7299 144.911Z" fill="#121214"/>
<path d="M114.437 213.572C113.989 213.812 113.511 214.021 113.062 214.2C113.062 213.513 112.883 212.826 113.062 212.198C113.78 209.718 114.587 207.238 115.334 204.788C117.516 197.528 119.698 190.237 121.91 183.007C123.733 177.15 125.676 171.324 127.499 165.468C128.963 160.687 130.309 155.877 131.803 151.096C132.251 149.572 132.909 148.079 133.537 146.614C133.746 146.166 134.194 145.868 134.553 145.509C134.702 145.957 135.091 146.465 135.031 146.883C134.553 149.811 134.194 152.799 133.417 155.638C131.295 163.107 128.993 170.517 126.662 177.927C125.018 183.216 123.195 188.415 121.401 193.673C119.997 197.797 118.562 201.95 117.127 206.073C116.26 208.553 115.334 211.003 114.437 213.572Z" fill="#121214"/>
<path d="M84.8911 135.629C85.2797 131.745 85.6982 127.92 85.8476 124.126C85.9672 121.048 83.9646 119.255 80.7365 119.853C80.4077 119.913 80.049 119.883 79.6903 119.853C79.4512 119.793 79.0328 119.614 79.0328 119.554C79.0926 119.255 79.1822 118.867 79.3915 118.688C81.3044 117.074 83.4265 116.596 85.6683 117.791C87.8801 118.957 89.0757 120.959 89.1355 123.438C89.255 128.368 88.179 133.119 86.7742 137.81C84.8911 144.114 83.1575 150.449 81.0653 156.663C78.6741 163.655 76.0438 170.587 73.4434 177.519C71.4707 182.777 69.4083 188.006 67.3161 193.205C67.0471 193.832 66.3297 194.311 65.8216 194.848C65.8216 194.161 65.6422 193.384 65.8814 192.787C67.9437 187.11 70.0958 181.493 72.1582 175.816C73.8021 171.334 75.3265 166.792 76.9106 162.281C78.1361 158.695 79.4811 155.17 80.587 151.554C82.0516 146.684 83.3369 141.724 84.6819 136.824C84.7716 136.466 84.7716 136.077 84.8911 135.629Z" fill="#121214"/>
<path d="M39.4163 216.142C36.3377 214.529 33.2292 213.214 30.3598 211.481C27.8789 209.957 25.5177 208.135 23.3058 206.222C21.901 204.997 20.7652 203.414 20.3468 201.501C20.2571 201.113 20.4663 200.635 20.556 200.187C20.9147 200.276 21.3929 200.276 21.6619 200.486C23.1863 201.741 24.5911 203.145 26.1454 204.31C29.4033 206.73 32.6015 209.27 36.0687 211.361C40.4326 214.021 45.0356 216.321 49.5489 218.771C49.788 218.921 50.057 219.01 50.2662 219.19C50.6249 219.518 50.9537 219.877 51.3124 220.206C50.8042 220.325 50.2065 220.654 49.8179 220.474C46.3507 219.1 42.9433 217.636 39.4163 216.142Z" fill="#121214"/>
<path d="M88.234 185.222C89.848 180.919 91.4023 176.736 92.8669 172.523C94.7499 167.026 96.5433 161.498 98.3665 155.97C98.6356 155.104 99.0241 154.178 99.0241 153.281C99.054 152.355 99.4725 152.265 100.07 152.475C100.339 152.564 100.608 153.192 100.548 153.49C99.8013 156.717 99.1138 159.944 98.1573 163.111C96.5732 168.37 94.8994 173.599 93.0761 178.798C91.492 183.339 90.0871 188 86.7993 191.705C86.4107 192.183 85.7233 192.392 85.1852 192.751C85.2151 192.094 85.1255 191.377 85.3646 190.839C86.2314 188.956 87.2177 187.134 88.234 185.222Z" fill="#121214"/>
<path d="M128.426 139.293C130.746 140.128 140.061 141.387 142.49 142.222C142.562 142.188 142.634 141.317 142.49 141.248C141.801 140.935 139.626 140.128 138.865 139.989C135.566 139.258 132.268 138.457 128.97 137.761C128.571 137.657 128.063 137.97 127.628 138.109C127.882 138.527 128.063 139.188 128.426 139.293Z" fill="#121214"/>
<path d="M52.6219 158.954C53.8175 155.07 54.9832 151.335 56.2087 147.6C57.1651 144.672 58.1515 141.714 59.1976 138.816C59.377 138.368 60.0345 138.099 60.4829 137.741C60.5427 138.308 60.8117 138.966 60.6622 139.473C57.9124 147.989 55.1028 156.474 52.323 164.96C52.2035 165.289 52.0839 165.587 51.8448 165.826C51.6057 166.065 51.247 166.185 50.9481 166.394C50.8883 166.095 50.7688 165.797 50.8285 165.528C51.4263 163.376 52.0241 161.255 52.6219 158.954Z" fill="#121214"/>
<path d="M99.7116 125.591C99.861 125.8 99.9208 125.919 99.9806 126.069C98.8149 126.248 97.7389 126.875 96.4536 126.128C94.8097 125.202 93.0462 124.575 91.3425 123.738C91.1034 123.619 91.0137 123.23 90.8643 122.931C91.1931 122.902 91.5517 122.722 91.8506 122.842C94.451 123.708 97.0514 124.605 99.7116 125.591Z" fill="#121214"/>
<path d="M118.034 135.306C117.586 134.768 117.137 134.2 116.719 133.603C116.539 133.364 116.42 133.065 116.27 132.796C116.599 132.736 116.988 132.587 117.287 132.706C119.259 133.334 121.232 133.961 123.145 134.708C123.504 134.857 123.683 135.485 123.922 135.903C123.384 135.993 122.786 136.322 122.338 136.172C121.023 135.784 119.738 135.216 118.452 134.738C118.333 134.678 118.183 134.648 118.034 134.618C118.034 134.828 118.034 135.007 118.034 135.306Z" fill="#121214"/>
<path d="M81.4497 119.216C81.5396 119.335 81.5695 119.574 81.4797 119.724C81.4497 119.813 81.1803 119.783 81.0007 119.783C81.1504 119.634 81.2701 119.455 81.4497 119.216Z" fill="#121214"/>
<path d="M83.3022 211.481C82.5251 211.84 81.8077 212.198 81.0605 212.407C80.7018 212.527 80.2236 212.347 79.8051 212.288C80.0144 211.869 80.1638 211.391 80.4627 211.063C81.2996 210.107 82.4055 209.36 83.0631 208.284C84.5875 205.744 85.8727 203.115 87.2775 200.516C87.5764 199.978 87.8454 199.44 88.1742 198.962C88.3535 198.723 88.6823 198.573 88.9214 198.394C89.0709 198.753 89.4296 199.171 89.3399 199.41C88.0248 202.488 86.6797 205.565 85.2749 208.583C84.7967 209.599 84.0196 210.465 83.3022 211.481Z" fill="#121214"/>
<path d="M221.153 233.023C217.925 233.412 214.816 233.77 211.738 234.219C207.045 234.906 202.472 234.488 198.018 233.023C196.703 232.575 195.478 232.037 194.581 230.842C193.953 230.006 194.402 229.797 195.059 229.767C195.597 229.737 196.195 229.886 196.733 230.036C199.991 231.081 203.399 231.41 206.776 231.47C209.705 231.5 212.664 230.962 215.593 230.633C217.716 230.394 219.898 230.245 221.93 229.707C225.606 228.721 229.223 227.586 232.78 226.301C236.516 224.926 240.193 223.283 243.899 221.819C244.258 221.67 244.766 221.909 245.214 221.968C244.975 222.327 244.796 222.775 244.467 222.984C239.505 226.032 234.334 228.691 228.805 230.633C226.354 231.5 223.813 232.217 221.153 233.023Z" fill="#121214"/>
<path d="M102.73 18.2332C99.9806 18.532 97.6193 18.0539 96.5732 15.1557C96.2743 14.2892 96.2444 13.2733 96.2743 12.3172C96.3341 10.6739 99.2932 7.02869 100.847 6.72991C101.535 6.58051 102.402 6.70003 103.059 6.96893C105.749 8.10432 108.32 11.9885 106.407 15.2453C105.57 16.6496 104.315 17.5161 102.73 18.2332ZM99.6817 14.7075C101.565 15.6636 103.627 14.1099 103.059 12.2873C102.82 11.5105 102.163 10.4946 101.505 10.3452C100.758 10.1361 99.4725 10.5245 99.0242 11.0922C98.6057 11.6898 98.9345 12.8251 99.0242 13.7215C99.054 14.0203 99.3529 14.2892 99.6817 14.7075Z" fill="#121214"/>
<path d="M190.307 14.0502C187.826 15.9923 184.06 15.0063 182.984 12.7654C182.027 10.8233 182.595 8.79154 183.612 7.05858C184.389 5.7738 185.883 5.53477 187.348 5.74392C188.932 5.98295 190.606 7.74578 191.024 9.23972C191.443 10.9129 191.443 12.4965 190.307 14.0502ZM185.016 10.6739C185.285 10.9428 185.525 11.391 185.853 11.4806C186.451 11.6001 187.079 11.5105 187.706 11.5105C187.557 10.9727 187.527 10.3153 187.198 9.9568C186.87 9.59826 186.212 9.38911 185.704 9.38911C185.495 9.38911 185.256 10.0166 185.016 10.6739Z" fill="#121214"/>
<path d="M217.596 32.9335C217.925 30.7822 219.33 30.0352 221.243 30.2444C222.558 30.3938 223.723 31.9773 223.903 33.3816C224.351 36.7878 220.615 39.1183 218.044 38.0128C216.819 37.5049 215.653 35.8616 215.833 34.4871C215.862 34.1585 216.221 33.8597 216.46 33.531C216.64 33.7701 216.789 34.039 216.998 34.2481C217.596 34.8756 217.985 35.9213 219.061 35.5927C219.658 35.4134 220.226 34.9353 220.645 34.4573C220.824 34.278 220.615 33.7402 220.555 33.3518C220.286 33.4115 219.957 33.4414 219.688 33.531C218.881 33.8896 217.955 34.8756 217.596 32.9335Z" fill="#121214"/>
<path d="M68.0585 125.497C67.2814 125.856 66.5641 126.215 65.8168 126.424C65.4581 126.543 64.9799 126.364 64.5615 126.304C64.7707 125.886 64.9201 125.408 65.219 125.079C66.0559 124.123 67.1618 123.376 67.8194 122.3C69.3438 119.761 70.629 117.131 72.0338 114.532C72.3327 113.994 72.6017 113.456 72.9305 112.978C73.1099 112.739 73.4387 112.59 73.6778 112.411C73.8272 112.769 74.1859 113.187 74.0962 113.426C72.7811 116.504 71.4361 119.581 70.0312 122.599C69.553 123.615 68.7759 124.482 68.0585 125.497Z" fill="#121214"/>
<path d="M140.242 124.362C140.929 123.286 141.497 122.032 142.424 121.135C145.263 118.386 146.668 114.771 148.521 111.425C148.97 110.558 149.508 109.751 150.046 108.945C150.165 108.795 150.404 108.736 150.584 108.616C150.614 108.825 150.703 109.064 150.643 109.243C150.464 109.961 150.345 110.708 150.046 111.365C148.103 115.518 146.728 120 143.051 123.077C142.304 123.705 141.258 123.944 140.242 124.362Z" fill="#121214"/>
<path d="M164.004 44.5264C164.632 42.6141 165.11 40.7617 165.708 38.9689C165.977 38.1025 166.455 37.2957 166.963 36.5189C167.202 36.2201 167.77 36.1604 168.159 35.9512C168.159 36.4293 168.278 36.9372 168.159 37.3555C167.651 38.9391 167.053 40.4928 166.485 42.0464C165.648 44.2575 165.23 46.4984 165.857 48.8588C165.947 49.2771 165.558 49.785 165.379 50.2631C165.05 49.9643 164.632 49.7252 164.423 49.3368C163.556 47.8429 163.675 46.1996 164.004 44.5264Z" fill="#121214"/>
<path d="M151.152 71.5665C149.866 71.5067 149.657 70.5506 149.448 69.6841C149.149 68.3396 149.807 67.1743 150.524 66.1286C151.301 64.9633 153.393 65.2621 154.051 66.7859C154.499 67.8317 154.499 69.3555 154.111 70.4311C153.752 71.447 152.527 72.0147 151.152 71.5665ZM152.138 69.236C152.138 69.0268 152.198 68.8177 152.138 68.6384C151.929 68.2798 151.69 67.9512 151.45 67.5926C151.271 68.0408 150.972 68.5189 150.972 68.9671C151.002 69.5646 151.331 70.0128 152.138 69.236Z" fill="#121214"/>
<path d="M148.312 101.893C148.342 100.34 147.983 98.8457 149.179 97.5311C150.165 96.4554 152.108 96.5451 152.915 97.8C153.513 98.7561 153.692 101.236 152.287 102.282C151.122 103.148 149.538 103.059 148.312 101.893ZM150.046 99.1146C149.956 99.5031 149.717 99.9512 149.807 100.31C149.866 100.549 150.374 100.698 150.673 100.877C150.853 100.489 151.211 100.041 151.152 99.6823C151.092 99.4134 150.524 99.2043 150.046 99.1146Z" fill="#121214"/>
<path d="M115.583 52.2948C116.719 50.8606 117.795 49.4862 118.841 48.1417C118.931 48.0521 119.23 47.9923 119.259 48.0222C119.379 48.2911 119.618 48.5899 119.528 48.799C119.319 49.3368 119.02 49.9045 118.662 50.3527C116.48 53.1314 115.284 56.1492 115.643 59.7346C115.673 60.1529 115.374 60.6011 115.194 61.0194C114.866 60.6608 114.417 60.362 114.178 59.9437C113.012 58.0315 113.849 56.1492 114.507 54.3266C114.746 53.6394 115.165 53.0119 115.583 52.2948Z" fill="#121214"/>
<path d="M78.3107 92.6907C77.7129 94.6029 76.3679 94.9316 74.694 94.8121C73.7376 94.7523 73.2593 94.334 73.0202 93.5273C72.542 91.9736 73.7974 89.5534 75.2918 89.1053C76.5771 88.7168 78.1014 89.8224 78.3107 91.3462C78.3406 91.7346 78.3107 92.1529 78.3107 92.6907ZM73.8272 92.8401C74.1859 93.9755 74.9929 93.3182 75.5608 93.1389C75.8597 93.0492 76.069 92.5114 76.1885 92.1529C76.2782 91.8541 76.0989 91.5254 76.0391 91.1968C75.6804 91.376 75.2619 91.5254 74.9332 91.7645C74.5745 92.0035 74.3055 92.362 73.8272 92.8401Z" fill="#121214"/>
<path d="M138.09 97.1725C135.579 96.2761 135.131 94.5731 136.984 93.1389C137.432 92.7505 138.449 92.5114 138.867 92.7505C139.554 93.1688 140.391 94.0651 140.361 94.7225C140.332 95.4694 139.405 96.1865 138.837 96.8737C138.718 97.0231 138.449 97.0829 138.09 97.1725ZM138.389 94.9316C138.239 94.6926 138.06 94.4237 137.911 94.1846C137.761 94.334 137.642 94.4535 137.492 94.6029C137.731 94.7523 138 94.9316 138.389 94.9316Z" fill="#121214"/>
<path d="M174.555 82.532C175.362 84.1753 175.96 85.8485 177.006 87.1632C178.77 89.3443 181.609 89.673 184.06 90.5693C184.987 90.898 185.973 90.9876 186.929 91.1968C187.109 91.2565 187.258 91.4358 187.408 91.5553C187.258 91.7346 187.109 92.0633 186.959 92.0633C185.794 92.0035 184.598 92.0334 183.462 91.7645C181.31 91.2565 179.158 90.6888 177.066 89.9419C174.256 88.9559 172.194 85.9083 172.194 82.8308C172.164 81.4563 172.313 80.0819 172.493 78.7374C172.553 78.4685 173.061 78.2295 173.389 78.0801C173.479 78.0502 173.898 78.4984 173.927 78.7673C174.196 79.9624 174.346 81.1874 174.555 82.532Z" fill="#121214"/>
<path d="M236.725 73.2696C234.035 73.4489 233.497 72.9111 233.019 71.208C232.541 69.4153 233.976 66.7561 235.709 66.1585C236.158 65.9792 236.935 66.3079 237.383 66.6365C239.326 68.1006 239.445 70.7 237.712 72.433C237.443 72.7019 237.144 73.0007 236.725 73.2696ZM236.128 70.7299C236.696 69.714 236.277 68.9671 235.47 68.3396C235.41 68.2799 235.022 68.5189 234.902 68.6683C234.274 69.5647 234.753 70.2519 235.41 70.8793C235.5 70.9689 235.769 70.8793 236.128 70.7299Z" fill="#121214"/>
<path d="M213.71 85.5199C211.588 85.2211 209.616 84.5637 207.673 84.7131C205.162 84.8924 202.741 85.729 200.26 86.2369C199.842 86.3565 199.393 86.476 199.005 86.3863C198.616 86.2967 198.287 85.968 197.929 85.729C198.198 85.5199 198.437 85.1912 198.736 85.1314C202.053 84.2948 205.162 82.3228 208.689 82.8905C210.692 83.1893 212.575 84.0558 214.517 84.6833C214.667 84.743 214.757 84.9522 214.876 85.1016C214.547 85.251 214.189 85.3705 213.71 85.5199Z" fill="#121214"/>
<path d="M198.766 66.3975C196.853 66.039 194.91 66.2481 193.415 64.9036C193.117 64.6347 192.788 64.4554 192.519 64.1865C192.369 64.0072 192.31 63.7682 192.19 63.5591C192.429 63.5292 192.638 63.3798 192.848 63.4097C194.521 63.6188 196.135 63.9176 197.809 64.067C199.632 64.2164 201.456 64.1865 203.279 64.3359C203.966 64.3957 204.654 64.6944 205.341 64.9036C204.833 65.2621 204.355 65.8597 203.817 65.9493C202.203 66.1884 200.559 66.2481 198.766 66.3975Z" fill="#121214"/>
<path d="M219.599 96.9633C220.974 98.517 222.289 100.011 223.574 101.505C223.903 101.893 224.142 102.342 224.411 102.76C223.873 102.79 223.245 102.999 222.767 102.82C219.658 101.535 216.939 98.0091 217.327 94.4237C217.357 94.1249 217.626 93.856 217.775 93.5871C217.925 93.8261 218.074 94.0651 218.194 94.3042C218.642 95.1408 219.091 96.0072 219.599 96.9633Z" fill="#121214"/>
<path d="M243.002 83.1296C243.331 81.7551 244.108 80.8588 245.423 81.0978C246.111 81.2472 246.858 81.9045 247.276 82.532C247.964 83.5777 247.306 84.743 246.529 85.2808C245.872 85.729 244.646 85.6991 243.809 85.4601C242.942 85.1912 242.673 84.2351 243.002 83.1296Z" fill="#121214"/>
<path d="M251.122 108.524C251.002 107.479 251.002 106.792 252.287 107.658C253.035 108.166 254.081 108.256 254.977 108.614C255.306 108.734 255.545 109.062 255.844 109.331C255.515 109.57 255.187 110.018 254.858 110.048C253.423 110.138 252.018 110.078 251.122 108.524Z" fill="#121214"/>
<path d="M125.895 16.7392C127.628 20.7131 130.558 23.4022 134.144 25.4638C134.443 25.6431 134.712 25.8223 134.951 26.0614C135.22 26.39 135.46 26.7486 135.699 27.1071C135.191 27.1071 134.623 27.2565 134.204 27.0772C132.859 26.4498 131.604 25.6729 130.289 24.9857C129.512 24.5973 128.705 24.2686 127.957 23.8205C125.118 22.2668 123.384 17.8447 123.743 14.8868C123.773 14.6477 123.952 14.4685 124.042 14.2593C124.251 14.3788 124.55 14.4386 124.669 14.6179C125.088 15.2752 125.447 15.9624 125.895 16.7392Z" fill="#121214"/>
<path d="M142.334 35.264C141.049 33.9493 139.794 32.7542 138.598 31.4993C138.269 31.1109 137.97 30.6627 137.821 30.1846C137.731 29.8858 137.94 29.4377 138.179 29.1688C138.239 29.0791 138.777 29.1986 138.987 29.348C141.079 30.8718 142.753 32.7542 143.769 35.1445C143.888 35.4731 143.888 35.8317 143.978 36.1604C143.649 35.9811 143.35 35.8018 143.022 35.6524C142.842 35.5329 142.633 35.4433 142.334 35.264Z" fill="#121214"/>
</svg>
